<mxfile host="app.diagrams.net" modified="2020-08-13T08:51:02.885Z" agent="5.0 (Windows)" etag="zqfytUsKixpWOy2a-J8H" version="13.6.2" type="github">
  <diagram id="O5Thk8qJjQpYoOTOiQrY" name="Page-1">
    <mxGraphModel dx="1035" dy="529" grid="1" gridSize="10" guides="1" tooltips="1" connect="1" arrows="1" fold="1" page="1" pageScale="1" pageWidth="850" pageHeight="1100" math="0" shadow="0">
      <root>
        <mxCell id="0" />
        <mxCell id="1" parent="0" />
        <mxCell id="IT4guImNfh3KZpESXHfW-26" value="" style="edgeStyle=orthogonalEdgeStyle;rounded=0;orthogonalLoop=1;jettySize=auto;html=1;" parent="1" source="IT4guImNfh3KZpESXHfW-1" target="IT4guImNfh3KZpESXHfW-2" edge="1">
          <mxGeometry relative="1" as="geometry">
            <Array as="points">
              <mxPoint x="425" y="110" />
              <mxPoint x="425" y="110" />
            </Array>
          </mxGeometry>
        </mxCell>
        <mxCell id="IT4guImNfh3KZpESXHfW-1" value="&lt;div&gt;Microservice App&lt;/div&gt;" style="rounded=1;whiteSpace=wrap;html=1;fillColor=#dae8fc;strokeColor=#6c8ebf;" parent="1" vertex="1">
          <mxGeometry x="325" y="20" width="200" height="60" as="geometry" />
        </mxCell>
        <mxCell id="IT4guImNfh3KZpESXHfW-2" value="Service Parent" style="rounded=1;whiteSpace=wrap;html=1;fillColor=#fff2cc;strokeColor=#d6b656;" parent="1" vertex="1">
          <mxGeometry x="335" y="150" width="180" height="40" as="geometry" />
        </mxCell>
        <mxCell id="IT4guImNfh3KZpESXHfW-6" value="&lt;div&gt;Config Server&lt;/div&gt;&lt;div&gt;localhost:8888&lt;br&gt;&lt;/div&gt;" style="rounded=1;whiteSpace=wrap;html=1;fillColor=#ffe6cc;strokeColor=#d79b00;" parent="1" vertex="1">
          <mxGeometry x="40" y="210" width="120" height="60" as="geometry" />
        </mxCell>
        <mxCell id="IT4guImNfh3KZpESXHfW-8" value="&lt;div&gt;Eureka Server&lt;/div&gt;&lt;div&gt;localhost:8500&lt;br&gt;&lt;/div&gt;" style="rounded=1;whiteSpace=wrap;html=1;fillColor=#ffe6cc;strokeColor=#d79b00;" parent="1" vertex="1">
          <mxGeometry x="40" y="300" width="120" height="60" as="geometry" />
        </mxCell>
        <mxCell id="IT4guImNfh3KZpESXHfW-12" value="&lt;div&gt;Account Service&lt;/div&gt;&lt;div&gt;localhost:8501&lt;br&gt;&lt;/div&gt;" style="rounded=1;whiteSpace=wrap;html=1;fillColor=#ffe6cc;strokeColor=#d79b00;" parent="1" vertex="1">
          <mxGeometry x="215" y="300" width="120" height="60" as="geometry" />
        </mxCell>
        <mxCell id="IT4guImNfh3KZpESXHfW-13" value="&lt;div&gt;Ticket Service App&lt;br&gt;&lt;/div&gt;&lt;div&gt;localhost:8502&lt;br&gt;&lt;/div&gt;" style="rounded=1;whiteSpace=wrap;html=1;fillColor=#ffe6cc;strokeColor=#d79b00;" parent="1" vertex="1">
          <mxGeometry x="390" y="300" width="120" height="60" as="geometry" />
        </mxCell>
        <mxCell id="IT4guImNfh3KZpESXHfW-15" value="" style="endArrow=classic;html=1;entryX=0.567;entryY=0;entryDx=0;entryDy=0;entryPerimeter=0;exitX=0.25;exitY=1;exitDx=0;exitDy=0;" parent="1" source="IT4guImNfh3KZpESXHfW-2" target="IT4guImNfh3KZpESXHfW-12" edge="1">
          <mxGeometry width="50" height="50" relative="1" as="geometry">
            <mxPoint x="380" y="190" as="sourcePoint" />
            <mxPoint x="430" y="280" as="targetPoint" />
            <Array as="points" />
          </mxGeometry>
        </mxCell>
        <mxCell id="IT4guImNfh3KZpESXHfW-32" value="Module" style="edgeLabel;html=1;align=center;verticalAlign=middle;resizable=0;points=[];" parent="IT4guImNfh3KZpESXHfW-15" vertex="1" connectable="0">
          <mxGeometry x="-0.0118" y="1" relative="1" as="geometry">
            <mxPoint as="offset" />
          </mxGeometry>
        </mxCell>
        <mxCell id="IT4guImNfh3KZpESXHfW-16" value="&lt;div&gt;Notification Service App&lt;br&gt;&lt;/div&gt;&lt;div&gt;localhost:8503&lt;br&gt;&lt;/div&gt;" style="rounded=1;whiteSpace=wrap;html=1;fillColor=#ffe6cc;strokeColor=#d79b00;" parent="1" vertex="1">
          <mxGeometry x="550" y="300" width="140" height="60" as="geometry" />
        </mxCell>
        <mxCell id="IT4guImNfh3KZpESXHfW-17" value="" style="endArrow=classic;html=1;entryX=0.183;entryY=0;entryDx=0;entryDy=0;entryPerimeter=0;exitX=0.75;exitY=1;exitDx=0;exitDy=0;" parent="1" source="IT4guImNfh3KZpESXHfW-2" target="IT4guImNfh3KZpESXHfW-16" edge="1">
          <mxGeometry width="50" height="50" relative="1" as="geometry">
            <mxPoint x="400" y="300" as="sourcePoint" />
            <mxPoint x="450" y="250" as="targetPoint" />
          </mxGeometry>
        </mxCell>
        <mxCell id="IT4guImNfh3KZpESXHfW-24" value="Module" style="edgeLabel;html=1;align=center;verticalAlign=middle;resizable=0;points=[];" parent="IT4guImNfh3KZpESXHfW-17" vertex="1" connectable="0">
          <mxGeometry x="-0.3963" y="-2" relative="1" as="geometry">
            <mxPoint x="24.79" y="22.65" as="offset" />
          </mxGeometry>
        </mxCell>
        <mxCell id="IT4guImNfh3KZpESXHfW-20" value="" style="endArrow=classic;html=1;entryX=1;entryY=0.25;entryDx=0;entryDy=0;exitX=0;exitY=0.5;exitDx=0;exitDy=0;" parent="1" source="IT4guImNfh3KZpESXHfW-2" target="IT4guImNfh3KZpESXHfW-6" edge="1">
          <mxGeometry width="50" height="50" relative="1" as="geometry">
            <mxPoint x="370" y="161" as="sourcePoint" />
            <mxPoint x="140" y="161" as="targetPoint" />
          </mxGeometry>
        </mxCell>
        <mxCell id="IT4guImNfh3KZpESXHfW-31" value="Module" style="edgeLabel;html=1;align=center;verticalAlign=middle;resizable=0;points=[];" parent="IT4guImNfh3KZpESXHfW-20" vertex="1" connectable="0">
          <mxGeometry x="0.1202" relative="1" as="geometry">
            <mxPoint as="offset" />
          </mxGeometry>
        </mxCell>
        <mxCell id="IT4guImNfh3KZpESXHfW-22" value="" style="endArrow=classic;html=1;entryX=1;entryY=0.25;entryDx=0;entryDy=0;exitX=0;exitY=1;exitDx=0;exitDy=0;" parent="1" source="IT4guImNfh3KZpESXHfW-2" target="IT4guImNfh3KZpESXHfW-8" edge="1">
          <mxGeometry width="50" height="50" relative="1" as="geometry">
            <mxPoint x="370" y="161" as="sourcePoint" />
            <mxPoint x="130" y="160" as="targetPoint" />
          </mxGeometry>
        </mxCell>
        <mxCell id="IT4guImNfh3KZpESXHfW-30" value="Module" style="edgeLabel;html=1;align=center;verticalAlign=middle;resizable=0;points=[];" parent="IT4guImNfh3KZpESXHfW-22" vertex="1" connectable="0">
          <mxGeometry x="-0.1314" relative="1" as="geometry">
            <mxPoint as="offset" />
          </mxGeometry>
        </mxCell>
        <mxCell id="IT4guImNfh3KZpESXHfW-23" value="" style="endArrow=classic;html=1;entryX=0.5;entryY=0;entryDx=0;entryDy=0;" parent="1" source="IT4guImNfh3KZpESXHfW-2" target="IT4guImNfh3KZpESXHfW-13" edge="1">
          <mxGeometry width="50" height="50" relative="1" as="geometry">
            <mxPoint x="370" y="180" as="sourcePoint" />
            <mxPoint x="300.03999999999996" y="240" as="targetPoint" />
          </mxGeometry>
        </mxCell>
        <mxCell id="IT4guImNfh3KZpESXHfW-28" value="Module" style="edgeLabel;html=1;align=center;verticalAlign=middle;resizable=0;points=[];" parent="IT4guImNfh3KZpESXHfW-23" vertex="1" connectable="0">
          <mxGeometry x="-0.1589" y="3" relative="1" as="geometry">
            <mxPoint x="-0.01" y="10.4" as="offset" />
          </mxGeometry>
        </mxCell>
        <mxCell id="IT4guImNfh3KZpESXHfW-25" value="Common Service App" style="rounded=1;whiteSpace=wrap;html=1;fillColor=#f8cecc;strokeColor=#b85450;" parent="1" vertex="1">
          <mxGeometry x="720" y="280" width="120" height="40" as="geometry" />
        </mxCell>
        <mxCell id="IT4guImNfh3KZpESXHfW-34" value="" style="endArrow=classic;html=1;exitX=1;exitY=0.25;exitDx=0;exitDy=0;entryX=0.367;entryY=-0.075;entryDx=0;entryDy=0;entryPerimeter=0;" parent="1" source="IT4guImNfh3KZpESXHfW-2" target="IT4guImNfh3KZpESXHfW-25" edge="1">
          <mxGeometry width="50" height="50" relative="1" as="geometry">
            <mxPoint x="400" y="300" as="sourcePoint" />
            <mxPoint x="450" y="250" as="targetPoint" />
            <Array as="points">
              <mxPoint x="764" y="160" />
            </Array>
          </mxGeometry>
        </mxCell>
        <mxCell id="IT4guImNfh3KZpESXHfW-36" value="Module" style="edgeLabel;html=1;align=center;verticalAlign=middle;resizable=0;points=[];" parent="IT4guImNfh3KZpESXHfW-34" vertex="1" connectable="0">
          <mxGeometry x="-0.2275" y="1" relative="1" as="geometry">
            <mxPoint x="104" y="51" as="offset" />
          </mxGeometry>
        </mxCell>
        <mxCell id="IT4guImNfh3KZpESXHfW-37" value="" style="endArrow=classic;html=1;exitX=0.45;exitY=1.05;exitDx=0;exitDy=0;exitPerimeter=0;entryX=0.433;entryY=1.017;entryDx=0;entryDy=0;entryPerimeter=0;" parent="1" source="IT4guImNfh3KZpESXHfW-25" target="IT4guImNfh3KZpESXHfW-13" edge="1">
          <mxGeometry width="50" height="50" relative="1" as="geometry">
            <mxPoint x="784" y="360" as="sourcePoint" />
            <mxPoint x="440" y="371" as="targetPoint" />
            <Array as="points">
              <mxPoint x="774" y="441" />
              <mxPoint x="440" y="441" />
            </Array>
          </mxGeometry>
        </mxCell>
        <mxCell id="IT4guImNfh3KZpESXHfW-41" value="&lt;div&gt;Dependency&lt;/div&gt;" style="edgeLabel;html=1;align=center;verticalAlign=middle;resizable=0;points=[];" parent="IT4guImNfh3KZpESXHfW-37" vertex="1" connectable="0">
          <mxGeometry x="-0.5429" y="-1" relative="1" as="geometry">
            <mxPoint x="9" y="-40" as="offset" />
          </mxGeometry>
        </mxCell>
        <mxCell id="ZM7l4GJzOf72-eWwKHci-1" value="" style="endArrow=classic;startArrow=classic;html=1;entryX=0.5;entryY=1;entryDx=0;entryDy=0;exitX=0.558;exitY=1.017;exitDx=0;exitDy=0;exitPerimeter=0;" edge="1" parent="1" source="IT4guImNfh3KZpESXHfW-12" target="IT4guImNfh3KZpESXHfW-16">
          <mxGeometry width="50" height="50" relative="1" as="geometry">
            <mxPoint x="280" y="370" as="sourcePoint" />
            <mxPoint x="610" y="440" as="targetPoint" />
            <Array as="points">
              <mxPoint x="280" y="440" />
              <mxPoint x="620" y="440" />
            </Array>
          </mxGeometry>
        </mxCell>
        <mxCell id="ZM7l4GJzOf72-eWwKHci-3" value="Module" style="edgeLabel;html=1;align=center;verticalAlign=middle;resizable=0;points=[];" vertex="1" connectable="0" parent="1">
          <mxGeometry x="425" y="110" as="geometry" />
        </mxCell>
        <mxCell id="ZM7l4GJzOf72-eWwKHci-5" value="&lt;div&gt;Dependency&lt;/div&gt;" style="edgeLabel;html=1;align=center;verticalAlign=middle;resizable=0;points=[];" vertex="1" connectable="0" parent="1">
          <mxGeometry x="710" y="300" as="geometry">
            <mxPoint x="-96" y="101" as="offset" />
          </mxGeometry>
        </mxCell>
        <mxCell id="ZM7l4GJzOf72-eWwKHci-6" value="&lt;div&gt;Dependency&lt;/div&gt;" style="edgeLabel;html=1;align=center;verticalAlign=middle;resizable=0;points=[];" vertex="1" connectable="0" parent="1">
          <mxGeometry x="440" y="400" as="geometry" />
        </mxCell>
        <mxCell id="ZM7l4GJzOf72-eWwKHci-7" value="&lt;div&gt;Dependency&lt;/div&gt;" style="edgeLabel;html=1;align=center;verticalAlign=middle;resizable=0;points=[];" vertex="1" connectable="0" parent="1">
          <mxGeometry x="800" y="420" as="geometry">
            <mxPoint x="-520" y="-17" as="offset" />
          </mxGeometry>
        </mxCell>
      </root>
    </mxGraphModel>
  </diagram>
</mxfile>
